<?xml version="1.0" encoding="utf-8" standalone="no"?>
<!DOCTYPE svg PUBLIC "-//W3C//DTD SVG 1.1//EN"
  "http://www.w3.org/Graphics/SVG/1.1/DTD/svg11.dtd">
<svg xmlns:xlink="http://www.w3.org/1999/xlink" width="496.431502pt" height="301.614437pt" viewBox="0 0 496.431502 301.614437" xmlns="http://www.w3.org/2000/svg" version="1.1">
 <metadata>
  <rdf:RDF xmlns:dc="http://purl.org/dc/elements/1.1/" xmlns:cc="http://creativecommons.org/ns#" xmlns:rdf="http://www.w3.org/1999/02/22-rdf-syntax-ns#">
   <cc:Work>
    <dc:type rdf:resource="http://purl.org/dc/dcmitype/StillImage"/>
    <dc:date>2022-06-23T16:41:19.593329</dc:date>
    <dc:format>image/svg+xml</dc:format>
    <dc:creator>
     <cc:Agent>
      <dc:title>Matplotlib v3.5.2, https://matplotlib.org/</dc:title>
     </cc:Agent>
    </dc:creator>
   </cc:Work>
  </rdf:RDF>
 </metadata>
 <defs>
  <style type="text/css">*{stroke-linejoin: round; stroke-linecap: butt}</style>
 </defs>
 <g id="figure_1">
  <g id="patch_1">
   <path d="M 0 301.614437 
L 496.431502 301.614437 
L 496.431502 0 
L 0 0 
z
" style="fill: #ffffff"/>
  </g>
  <g id="axes_1">
   <g id="patch_2">
    <path d="M 44.136094 272.332875 
L 486.072094 272.332875 
L 486.072094 28.396875 
L 44.136094 28.396875 
z
" style="fill: #ffffff"/>
   </g>
   <g id="matplotlib.axis_1">
    <g id="xtick_1">
     <g id="text_1">
      <!-- Jan '21 -->
      <g style="fill: #262626" transform="translate(42.080422 291.710844)scale(0.13 -0.13)">
       <defs>
        <path id="DejaVuSans-4a" d="M 628 4666 
L 1259 4666 
L 1259 325 
Q 1259 -519 939 -900 
Q 619 -1281 -91 -1281 
L -331 -1281 
L -331 -750 
L -134 -750 
Q 284 -750 456 -515 
Q 628 -281 628 325 
L 628 4666 
z
" transform="scale(0.015625)"/>
        <path id="DejaVuSans-61" d="M 2194 1759 
Q 1497 1759 1228 1600 
Q 959 1441 959 1056 
Q 959 750 1161 570 
Q 1363 391 1709 391 
Q 2188 391 2477 730 
Q 2766 1069 2766 1631 
L 2766 1759 
L 2194 1759 
z
M 3341 1997 
L 3341 0 
L 2766 0 
L 2766 531 
Q 2569 213 2275 61 
Q 1981 -91 1556 -91 
Q 1019 -91 701 211 
Q 384 513 384 1019 
Q 384 1609 779 1909 
Q 1175 2209 1959 2209 
L 2766 2209 
L 2766 2266 
Q 2766 2663 2505 2880 
Q 2244 3097 1772 3097 
Q 1472 3097 1187 3025 
Q 903 2953 641 2809 
L 641 3341 
Q 956 3463 1253 3523 
Q 1550 3584 1831 3584 
Q 2591 3584 2966 3190 
Q 3341 2797 3341 1997 
z
" transform="scale(0.015625)"/>
        <path id="DejaVuSans-6e" d="M 3513 2113 
L 3513 0 
L 2938 0 
L 2938 2094 
Q 2938 2591 2744 2837 
Q 2550 3084 2163 3084 
Q 1697 3084 1428 2787 
Q 1159 2491 1159 1978 
L 1159 0 
L 581 0 
L 581 3500 
L 1159 3500 
L 1159 2956 
Q 1366 3272 1645 3428 
Q 1925 3584 2291 3584 
Q 2894 3584 3203 3211 
Q 3513 2838 3513 2113 
z
" transform="scale(0.015625)"/>
        <path id="DejaVuSans-20" transform="scale(0.015625)"/>
        <path id="DejaVuSans-27" d="M 1147 4666 
L 1147 2931 
L 616 2931 
L 616 4666 
L 1147 4666 
z
" transform="scale(0.015625)"/>
        <path id="DejaVuSans-32" d="M 1228 531 
L 3431 531 
L 3431 0 
L 469 0 
L 469 531 
Q 828 903 1448 1529 
Q 2069 2156 2228 2338 
Q 2531 2678 2651 2914 
Q 2772 3150 2772 3378 
Q 2772 3750 2511 3984 
Q 2250 4219 1831 4219 
Q 1534 4219 1204 4116 
Q 875 4013 500 3803 
L 500 4441 
Q 881 4594 1212 4672 
Q 1544 4750 1819 4750 
Q 2544 4750 2975 4387 
Q 3406 4025 3406 3419 
Q 3406 3131 3298 2873 
Q 3191 2616 2906 2266 
Q 2828 2175 2409 1742 
Q 1991 1309 1228 531 
z
" transform="scale(0.015625)"/>
        <path id="DejaVuSans-31" d="M 794 531 
L 1825 531 
L 1825 4091 
L 703 3866 
L 703 4441 
L 1819 4666 
L 2450 4666 
L 2450 531 
L 3481 531 
L 3481 0 
L 794 0 
L 794 531 
z
" transform="scale(0.015625)"/>
       </defs>
       <use xlink:href="#DejaVuSans-4a"/>
       <use xlink:href="#DejaVuSans-61" x="29.492188"/>
       <use xlink:href="#DejaVuSans-6e" x="90.771484"/>
       <use xlink:href="#DejaVuSans-20" x="154.150391"/>
       <use xlink:href="#DejaVuSans-27" x="185.9375"/>
       <use xlink:href="#DejaVuSans-32" x="213.427734"/>
       <use xlink:href="#DejaVuSans-31" x="277.050781"/>
      </g>
     </g>
    </g>
    <g id="xtick_2">
     <g id="text_2">
      <!-- Mar '21 -->
      <g style="fill: #262626" transform="translate(104.957346 291.710844)scale(0.13 -0.13)">
       <defs>
        <path id="DejaVuSans-4d" d="M 628 4666 
L 1569 4666 
L 2759 1491 
L 3956 4666 
L 4897 4666 
L 4897 0 
L 4281 0 
L 4281 4097 
L 3078 897 
L 2444 897 
L 1241 4097 
L 1241 0 
L 628 0 
L 628 4666 
z
" transform="scale(0.015625)"/>
        <path id="DejaVuSans-72" d="M 2631 2963 
Q 2534 3019 2420 3045 
Q 2306 3072 2169 3072 
Q 1681 3072 1420 2755 
Q 1159 2438 1159 1844 
L 1159 0 
L 581 0 
L 581 3500 
L 1159 3500 
L 1159 2956 
Q 1341 3275 1631 3429 
Q 1922 3584 2338 3584 
Q 2397 3584 2469 3576 
Q 2541 3569 2628 3553 
L 2631 2963 
z
" transform="scale(0.015625)"/>
       </defs>
       <use xlink:href="#DejaVuSans-4d"/>
       <use xlink:href="#DejaVuSans-61" x="86.279297"/>
       <use xlink:href="#DejaVuSans-72" x="147.558594"/>
       <use xlink:href="#DejaVuSans-20" x="188.671875"/>
       <use xlink:href="#DejaVuSans-27" x="220.458984"/>
       <use xlink:href="#DejaVuSans-32" x="247.949219"/>
       <use xlink:href="#DejaVuSans-31" x="311.572266"/>
      </g>
     </g>
    </g>
    <g id="xtick_3">
     <g id="text_3">
      <!-- May '21 -->
      <g style="fill: #262626" transform="translate(171.11018 291.710844)scale(0.13 -0.13)">
       <defs>
        <path id="DejaVuSans-79" d="M 2059 -325 
Q 1816 -950 1584 -1140 
Q 1353 -1331 966 -1331 
L 506 -1331 
L 506 -850 
L 844 -850 
Q 1081 -850 1212 -737 
Q 1344 -625 1503 -206 
L 1606 56 
L 191 3500 
L 800 3500 
L 1894 763 
L 2988 3500 
L 3597 3500 
L 2059 -325 
z
" transform="scale(0.015625)"/>
       </defs>
       <use xlink:href="#DejaVuSans-4d"/>
       <use xlink:href="#DejaVuSans-61" x="86.279297"/>
       <use xlink:href="#DejaVuSans-79" x="147.558594"/>
       <use xlink:href="#DejaVuSans-20" x="206.738281"/>
       <use xlink:href="#DejaVuSans-27" x="238.525391"/>
       <use xlink:href="#DejaVuSans-32" x="266.015625"/>
       <use xlink:href="#DejaVuSans-31" x="329.638672"/>
      </g>
     </g>
    </g>
    <g id="xtick_4">
     <g id="text_4">
      <!-- Jul '21 -->
      <g style="fill: #262626" transform="translate(244.034186 291.710844)scale(0.13 -0.13)">
       <defs>
        <path id="DejaVuSans-75" d="M 544 1381 
L 544 3500 
L 1119 3500 
L 1119 1403 
Q 1119 906 1312 657 
Q 1506 409 1894 409 
Q 2359 409 2629 706 
Q 2900 1003 2900 1516 
L 2900 3500 
L 3475 3500 
L 3475 0 
L 2900 0 
L 2900 538 
Q 2691 219 2414 64 
Q 2138 -91 1772 -91 
Q 1169 -91 856 284 
Q 544 659 544 1381 
z
M 1991 3584 
L 1991 3584 
z
" transform="scale(0.015625)"/>
        <path id="DejaVuSans-6c" d="M 603 4863 
L 1178 4863 
L 1178 0 
L 603 0 
L 603 4863 
z
" transform="scale(0.015625)"/>
       </defs>
       <use xlink:href="#DejaVuSans-4a"/>
       <use xlink:href="#DejaVuSans-75" x="29.492188"/>
       <use xlink:href="#DejaVuSans-6c" x="92.871094"/>
       <use xlink:href="#DejaVuSans-20" x="120.654297"/>
       <use xlink:href="#DejaVuSans-27" x="152.441406"/>
       <use xlink:href="#DejaVuSans-32" x="179.931641"/>
       <use xlink:href="#DejaVuSans-31" x="243.554688"/>
      </g>
     </g>
    </g>
    <g id="xtick_5">
     <g id="text_5">
      <!-- Sep '21 -->
      <g style="fill: #262626" transform="translate(308.05599 291.710844)scale(0.13 -0.13)">
       <defs>
        <path id="DejaVuSans-53" d="M 3425 4513 
L 3425 3897 
Q 3066 4069 2747 4153 
Q 2428 4238 2131 4238 
Q 1616 4238 1336 4038 
Q 1056 3838 1056 3469 
Q 1056 3159 1242 3001 
Q 1428 2844 1947 2747 
L 2328 2669 
Q 3034 2534 3370 2195 
Q 3706 1856 3706 1288 
Q 3706 609 3251 259 
Q 2797 -91 1919 -91 
Q 1588 -91 1214 -16 
Q 841 59 441 206 
L 441 856 
Q 825 641 1194 531 
Q 1563 422 1919 422 
Q 2459 422 2753 634 
Q 3047 847 3047 1241 
Q 3047 1584 2836 1778 
Q 2625 1972 2144 2069 
L 1759 2144 
Q 1053 2284 737 2584 
Q 422 2884 422 3419 
Q 422 4038 858 4394 
Q 1294 4750 2059 4750 
Q 2388 4750 2728 4690 
Q 3069 4631 3425 4513 
z
" transform="scale(0.015625)"/>
        <path id="DejaVuSans-65" d="M 3597 1894 
L 3597 1613 
L 953 1613 
Q 991 1019 1311 708 
Q 1631 397 2203 397 
Q 2534 397 2845 478 
Q 3156 559 3463 722 
L 3463 178 
Q 3153 47 2828 -22 
Q 2503 -91 2169 -91 
Q 1331 -91 842 396 
Q 353 884 353 1716 
Q 353 2575 817 3079 
Q 1281 3584 2069 3584 
Q 2775 3584 3186 3129 
Q 3597 2675 3597 1894 
z
M 3022 2063 
Q 3016 2534 2758 2815 
Q 2500 3097 2075 3097 
Q 1594 3097 1305 2825 
Q 1016 2553 972 2059 
L 3022 2063 
z
" transform="scale(0.015625)"/>
        <path id="DejaVuSans-70" d="M 1159 525 
L 1159 -1331 
L 581 -1331 
L 581 3500 
L 1159 3500 
L 1159 2969 
Q 1341 3281 1617 3432 
Q 1894 3584 2278 3584 
Q 2916 3584 3314 3078 
Q 3713 2572 3713 1747 
Q 3713 922 3314 415 
Q 2916 -91 2278 -91 
Q 1894 -91 1617 61 
Q 1341 213 1159 525 
z
M 3116 1747 
Q 3116 2381 2855 2742 
Q 2594 3103 2138 3103 
Q 1681 3103 1420 2742 
Q 1159 2381 1159 1747 
Q 1159 1113 1420 752 
Q 1681 391 2138 391 
Q 2594 391 2855 752 
Q 3116 1113 3116 1747 
z
" transform="scale(0.015625)"/>
       </defs>
       <use xlink:href="#DejaVuSans-53"/>
       <use xlink:href="#DejaVuSans-65" x="63.476562"/>
       <use xlink:href="#DejaVuSans-70" x="125"/>
       <use xlink:href="#DejaVuSans-20" x="188.476562"/>
       <use xlink:href="#DejaVuSans-27" x="220.263672"/>
       <use xlink:href="#DejaVuSans-32" x="247.753906"/>
       <use xlink:href="#DejaVuSans-31" x="311.376953"/>
      </g>
     </g>
    </g>
    <g id="xtick_6">
     <g id="text_6">
      <!-- Nov '21 -->
      <g style="fill: #262626" transform="translate(374.949215 291.710844)scale(0.13 -0.13)">
       <defs>
        <path id="DejaVuSans-4e" d="M 628 4666 
L 1478 4666 
L 3547 763 
L 3547 4666 
L 4159 4666 
L 4159 0 
L 3309 0 
L 1241 3903 
L 1241 0 
L 628 0 
L 628 4666 
z
" transform="scale(0.015625)"/>
        <path id="DejaVuSans-6f" d="M 1959 3097 
Q 1497 3097 1228 2736 
Q 959 2375 959 1747 
Q 959 1119 1226 758 
Q 1494 397 1959 397 
Q 2419 397 2687 759 
Q 2956 1122 2956 1747 
Q 2956 2369 2687 2733 
Q 2419 3097 1959 3097 
z
M 1959 3584 
Q 2709 3584 3137 3096 
Q 3566 2609 3566 1747 
Q 3566 888 3137 398 
Q 2709 -91 1959 -91 
Q 1206 -91 779 398 
Q 353 888 353 1747 
Q 353 2609 779 3096 
Q 1206 3584 1959 3584 
z
" transform="scale(0.015625)"/>
        <path id="DejaVuSans-76" d="M 191 3500 
L 800 3500 
L 1894 563 
L 2988 3500 
L 3597 3500 
L 2284 0 
L 1503 0 
L 191 3500 
z
" transform="scale(0.015625)"/>
       </defs>
       <use xlink:href="#DejaVuSans-4e"/>
       <use xlink:href="#DejaVuSans-6f" x="74.804688"/>
       <use xlink:href="#DejaVuSans-76" x="135.986328"/>
       <use xlink:href="#DejaVuSans-20" x="195.166016"/>
       <use xlink:href="#DejaVuSans-27" x="226.953125"/>
       <use xlink:href="#DejaVuSans-32" x="254.443359"/>
       <use xlink:href="#DejaVuSans-31" x="318.066406"/>
      </g>
     </g>
    </g>
    <g id="xtick_7">
     <g id="text_7">
      <!-- Jan '22 -->
      <g style="fill: #262626" transform="translate(444.944158 291.710844)scale(0.13 -0.13)">
       <use xlink:href="#DejaVuSans-4a"/>
       <use xlink:href="#DejaVuSans-61" x="29.492188"/>
       <use xlink:href="#DejaVuSans-6e" x="90.771484"/>
       <use xlink:href="#DejaVuSans-20" x="154.150391"/>
       <use xlink:href="#DejaVuSans-27" x="185.9375"/>
       <use xlink:href="#DejaVuSans-32" x="213.427734"/>
       <use xlink:href="#DejaVuSans-32" x="277.050781"/>
      </g>
     </g>
    </g>
   </g>
   <g id="matplotlib.axis_2">
    <g id="ytick_1">
     <g id="text_8">
      <!-- −30 -->
      <g style="fill: #262626" transform="translate(7.2 277.271859)scale(0.13 -0.13)">
       <defs>
        <path id="DejaVuSans-2212" d="M 678 2272 
L 4684 2272 
L 4684 1741 
L 678 1741 
L 678 2272 
z
" transform="scale(0.015625)"/>
        <path id="DejaVuSans-33" d="M 2597 2516 
Q 3050 2419 3304 2112 
Q 3559 1806 3559 1356 
Q 3559 666 3084 287 
Q 2609 -91 1734 -91 
Q 1441 -91 1130 -33 
Q 819 25 488 141 
L 488 750 
Q 750 597 1062 519 
Q 1375 441 1716 441 
Q 2309 441 2620 675 
Q 2931 909 2931 1356 
Q 2931 1769 2642 2001 
Q 2353 2234 1838 2234 
L 1294 2234 
L 1294 2753 
L 1863 2753 
Q 2328 2753 2575 2939 
Q 2822 3125 2822 3475 
Q 2822 3834 2567 4026 
Q 2313 4219 1838 4219 
Q 1578 4219 1281 4162 
Q 984 4106 628 3988 
L 628 4550 
Q 988 4650 1302 4700 
Q 1616 4750 1894 4750 
Q 2613 4750 3031 4423 
Q 3450 4097 3450 3541 
Q 3450 3153 3228 2886 
Q 3006 2619 2597 2516 
z
" transform="scale(0.015625)"/>
        <path id="DejaVuSans-30" d="M 2034 4250 
Q 1547 4250 1301 3770 
Q 1056 3291 1056 2328 
Q 1056 1369 1301 889 
Q 1547 409 2034 409 
Q 2525 409 2770 889 
Q 3016 1369 3016 2328 
Q 3016 3291 2770 3770 
Q 2525 4250 2034 4250 
z
M 2034 4750 
Q 2819 4750 3233 4129 
Q 3647 3509 3647 2328 
Q 3647 1150 3233 529 
Q 2819 -91 2034 -91 
Q 1250 -91 836 529 
Q 422 1150 422 2328 
Q 422 3509 836 4129 
Q 1250 4750 2034 4750 
z
" transform="scale(0.015625)"/>
       </defs>
       <use xlink:href="#DejaVuSans-2212"/>
       <use xlink:href="#DejaVuSans-33" x="83.789062"/>
       <use xlink:href="#DejaVuSans-30" x="147.412109"/>
      </g>
     </g>
    </g>
    <g id="ytick_2">
     <g id="text_9">
      <!-- −20 -->
      <g style="fill: #262626" transform="translate(7.2 236.615859)scale(0.13 -0.13)">
       <use xlink:href="#DejaVuSans-2212"/>
       <use xlink:href="#DejaVuSans-32" x="83.789062"/>
       <use xlink:href="#DejaVuSans-30" x="147.412109"/>
      </g>
     </g>
    </g>
    <g id="ytick_3">
     <g id="text_10">
      <!-- −10 -->
      <g style="fill: #262626" transform="translate(7.2 195.959859)scale(0.13 -0.13)">
       <use xlink:href="#DejaVuSans-2212"/>
       <use xlink:href="#DejaVuSans-31" x="83.789062"/>
       <use xlink:href="#DejaVuSans-30" x="147.412109"/>
      </g>
     </g>
    </g>
    <g id="ytick_4">
     <g id="text_11">
      <!-- 0 -->
      <g style="fill: #262626" transform="translate(26.364844 155.303859)scale(0.13 -0.13)">
       <use xlink:href="#DejaVuSans-30"/>
      </g>
     </g>
    </g>
    <g id="ytick_5">
     <g id="text_12">
      <!-- 10 -->
      <g style="fill: #262626" transform="translate(18.093594 114.647859)scale(0.13 -0.13)">
       <use xlink:href="#DejaVuSans-31"/>
       <use xlink:href="#DejaVuSans-30" x="63.623047"/>
      </g>
     </g>
    </g>
    <g id="ytick_6">
     <g id="text_13">
      <!-- 20 -->
      <g style="fill: #262626" transform="translate(18.093594 73.991859)scale(0.13 -0.13)">
       <use xlink:href="#DejaVuSans-32"/>
       <use xlink:href="#DejaVuSans-30" x="63.623047"/>
      </g>
     </g>
    </g>
    <g id="ytick_7">
     <g id="text_14">
      <!-- 30 -->
      <g style="fill: #262626" transform="translate(18.093594 33.335859)scale(0.13 -0.13)">
       <use xlink:href="#DejaVuSans-33"/>
       <use xlink:href="#DejaVuSans-30" x="63.623047"/>
      </g>
     </g>
    </g>
   </g>
   <g id="line2d_1">
    <path d="M 64.224094 149.682175 
L 65.32783 158.410805 
L 66.431566 162.340012 
L 67.535303 159.746163 
L 68.639039 163.661717 
L 69.742775 163.904256 
L 70.846511 164.612165 
L 71.950248 163.76922 
L 73.053984 169.054427 
L 74.15772 166.531228 
L 75.261456 169.408491 
L 76.365193 170.539158 
L 77.468929 174.01246 
L 79.676401 169.253539 
L 80.780138 175.447802 
L 81.883874 167.566558 
L 82.98761 164.985808 
L 85.195083 169.8817 
L 86.298819 170.550958 
L 88.506292 166.895183 
L 89.610028 163.781278 
L 90.713764 159.229723 
L 91.8175 156.571757 
L 92.921237 154.647438 
L 94.024973 160.211938 
L 95.128709 170.417717 
L 97.336182 162.221136 
L 98.439918 160.041703 
L 99.543654 163.234742 
L 100.64739 168.409094 
L 101.751127 164.677513 
L 102.854863 164.986081 
L 103.958599 160.059498 
L 105.062336 156.710464 
L 106.166072 149.639666 
L 107.269808 144.519581 
L 108.373544 150.443758 
L 109.477281 152.263969 
L 110.581017 145.909506 
L 111.684753 146.223995 
L 112.788489 151.036421 
L 113.892226 149.689461 
L 114.995962 153.177789 
L 116.099698 150.952038 
L 117.203434 151.361897 
L 118.307171 152.689583 
L 119.410907 151.177571 
L 120.514643 154.212004 
L 121.618379 163.070043 
L 122.722116 166.197346 
L 123.825852 166.062773 
L 124.929588 169.104941 
L 126.033325 170.8144 
L 128.240797 180.542972 
L 129.344533 179.278028 
L 130.44827 176.839185 
L 131.552006 175.218165 
L 132.655742 178.802776 
L 134.863215 177.368896 
L 135.966951 177.156713 
L 137.070687 177.857415 
L 138.174423 176.414093 
L 139.27816 179.879581 
L 140.381896 177.977169 
L 141.485632 172.599743 
L 142.589368 171.382014 
L 143.693105 175.428014 
L 144.796841 178.547344 
L 145.900577 171.917166 
L 147.004314 170.313884 
L 148.10805 176.655236 
L 149.211786 173.789965 
L 150.315522 176.032415 
L 151.419259 177.093656 
L 152.522995 179.565999 
L 153.626731 177.882191 
L 154.730467 180.860947 
L 155.834204 181.870249 
L 156.93794 185.169431 
L 158.041676 179.622657 
L 159.145412 180.322156 
L 160.249149 177.12532 
L 162.456621 176.889705 
L 163.560357 182.030166 
L 164.664094 179.300493 
L 165.76783 179.68812 
L 166.871566 190.310695 
L 167.975303 192.407945 
L 169.079039 190.860804 
L 170.182775 182.903732 
L 171.286511 183.432039 
L 172.390248 182.601691 
L 173.493984 184.765129 
L 174.59772 185.670554 
L 175.701456 187.966721 
L 176.805193 186.597373 
L 177.908929 184.168846 
L 179.012665 183.649192 
L 180.116401 179.703866 
L 182.323874 196.016769 
L 184.531346 192.633837 
L 185.635083 191.136504 
L 187.842555 186.30475 
L 188.946292 185.150677 
L 190.050028 180.915057 
L 191.153764 170.853861 
L 192.2575 176.701949 
L 193.361237 177.952611 
L 194.464973 176.188373 
L 195.568709 178.931643 
L 196.672445 175.225984 
L 197.776182 180.710951 
L 199.983654 186.755296 
L 201.08739 185.273504 
L 202.191127 190.89315 
L 203.294863 183.797644 
L 204.398599 184.393368 
L 205.502336 184.639079 
L 206.606072 182.9411 
L 207.709808 179.901439 
L 208.813544 185.71393 
L 209.917281 183.788369 
L 211.021017 185.978533 
L 212.124753 181.951364 
L 213.228489 185.587809 
L 214.332226 186.086393 
L 215.435962 184.834154 
L 216.539698 180.350617 
L 217.643434 174.781049 
L 218.747171 181.386411 
L 219.850907 178.292868 
L 220.954643 173.442386 
L 222.058379 179.184116 
L 223.162116 178.501257 
L 224.265852 181.885291 
L 225.369588 179.402442 
L 226.473325 172.301592 
L 227.577061 173.763394 
L 228.680797 169.494299 
L 229.784533 170.445712 
L 230.88827 170.353036 
L 231.992006 167.629113 
L 233.095742 168.966675 
L 234.199478 170.62895 
L 235.303215 166.347597 
L 236.406951 169.54586 
L 237.510687 173.556471 
L 238.614423 175.044642 
L 239.71816 170.308571 
L 241.925632 174.413906 
L 243.029368 179.046895 
L 244.133105 181.696102 
L 245.236841 185.181686 
L 246.340577 191.319889 
L 247.444314 192.936638 
L 248.54805 196.764259 
L 249.651786 200.089408 
L 250.755522 201.623038 
L 251.859259 196.459021 
L 252.962995 196.400421 
L 254.066731 196.10626 
L 256.274204 200.842951 
L 257.37794 198.106535 
L 258.481676 199.07182 
L 259.585412 200.95966 
L 260.689149 204.189522 
L 261.792885 209.032155 
L 262.896621 208.585139 
L 264.000357 207.717192 
L 265.104094 212.675327 
L 266.20783 210.665805 
L 267.311566 213.672882 
L 268.415303 214.432392 
L 269.519039 222.200528 
L 270.622775 218.413039 
L 271.726511 213.271022 
L 272.830248 211.533223 
L 273.933984 208.460693 
L 275.03772 217.623966 
L 276.141456 218.882133 
L 277.245193 216.841119 
L 278.348929 217.875827 
L 279.452665 220.568227 
L 280.556401 226.880001 
L 281.660138 225.725643 
L 282.763874 228.120178 
L 283.86761 231.264026 
L 284.971346 232.905209 
L 286.075083 233.922205 
L 287.178819 228.145388 
L 289.386292 237.76738 
L 290.490028 240.399587 
L 291.593764 236.41051 
L 292.6975 236.613407 
L 293.801237 234.150422 
L 294.904973 232.718168 
L 296.008709 226.418044 
L 297.112445 225.732587 
L 298.216182 220.031136 
L 300.423654 206.620655 
L 301.52739 203.270646 
L 302.631127 203.255448 
L 303.734863 200.525111 
L 304.838599 202.578965 
L 305.942336 202.347027 
L 307.046072 204.850861 
L 308.149808 201.506234 
L 309.253544 204.288185 
L 310.357281 205.660127 
L 311.461017 203.841899 
L 312.564753 208.782421 
L 313.668489 206.702699 
L 314.772226 205.815952 
L 315.875962 203.270916 
L 316.979698 202.972218 
L 318.083434 205.966317 
L 319.187171 206.678897 
L 320.290907 210.003808 
L 321.394643 209.480718 
L 322.498379 209.263536 
L 323.602116 208.718577 
L 324.705852 207.992362 
L 325.809588 212.396966 
L 326.913325 215.031997 
L 329.120797 201.142939 
L 330.224533 196.602176 
L 331.32827 199.119557 
L 332.432006 198.037236 
L 333.535742 198.844413 
L 335.743215 197.918639 
L 336.846951 204.110461 
L 337.950687 197.234675 
L 339.054423 200.057755 
L 340.15816 202.323813 
L 341.261896 200.132348 
L 342.365632 199.829466 
L 343.469368 199.040446 
L 344.573105 201.938804 
L 345.676841 203.568846 
L 346.780577 196.526512 
L 347.884314 194.689678 
L 350.091786 202.819364 
L 351.195522 196.871199 
L 352.299259 202.451215 
L 353.402995 202.686925 
L 354.506731 202.638789 
L 355.610467 197.713036 
L 356.714204 190.3702 
L 357.81794 191.062811 
L 358.921676 192.417015 
L 360.025412 191.347254 
L 361.129149 192.097121 
L 362.232885 193.734038 
L 363.336621 187.935138 
L 364.440357 190.538859 
L 366.64783 192.585345 
L 367.751566 194.730596 
L 368.855303 189.376809 
L 369.959039 184.939763 
L 371.062775 186.50474 
L 372.166511 185.615858 
L 373.270248 189.957442 
L 374.373984 184.708907 
L 375.47772 187.935247 
L 376.581456 190.231915 
L 377.685193 191.680439 
L 378.788929 194.083949 
L 379.892665 190.106224 
L 380.996401 199.235071 
L 382.100138 201.990709 
L 383.203874 197.81036 
L 384.30761 198.278155 
L 385.411346 209.954724 
L 386.515083 209.99542 
L 387.618819 209.355256 
L 388.722555 211.458468 
L 389.826292 203.284347 
L 390.930028 204.919076 
L 392.033764 210.404543 
L 393.1375 208.334902 
L 394.241237 210.482413 
L 396.448709 198.721255 
L 397.552445 201.886452 
L 398.656182 202.35127 
L 399.759918 196.226015 
L 400.863654 197.092506 
L 401.96739 198.331179 
L 403.071127 192.881252 
L 404.174863 196.022187 
L 405.278599 195.595643 
L 406.382336 200.238758 
L 407.486072 207.916843 
L 408.589808 216.782077 
L 409.693544 222.745807 
L 410.797281 222.090638 
L 411.901017 225.46691 
L 413.004753 227.634419 
L 414.108489 227.578792 
L 415.212226 220.125901 
L 416.315962 218.632967 
L 417.419698 216.807783 
L 418.523434 210.428537 
L 419.627171 216.9112 
L 420.730907 213.132397 
L 421.834643 204.245097 
L 422.938379 202.269501 
L 424.042116 203.697127 
L 425.145852 198.616037 
L 426.249588 198.751615 
L 427.353325 199.501363 
L 428.457061 202.630584 
L 429.560797 205.281008 
L 430.664533 205.601929 
L 431.76827 201.175243 
L 432.872006 202.167613 
L 433.975742 200.239638 
L 435.079478 197.738339 
L 436.183215 197.09465 
L 437.286951 206.554189 
L 438.390687 205.6841 
L 439.494423 205.660902 
L 440.59816 207.716783 
L 441.701896 215.207857 
L 442.805632 212.778545 
L 443.909368 214.959976 
L 445.013105 216.525868 
L 446.116841 222.497675 
L 447.220577 224.000076 
L 448.324314 226.249024 
L 449.42805 225.573347 
L 450.531786 222.509903 
L 451.635522 225.005398 
L 452.739259 226.439682 
L 453.842995 224.023704 
L 454.946731 225.252752 
L 456.050467 230.65249 
L 457.154204 228.291734 
L 458.25794 225.651573 
L 459.361676 219.11581 
L 460.465412 221.614298 
L 461.569149 227.981899 
L 462.672885 231.256841 
L 463.776621 232.336126 
L 464.880357 232.989916 
L 465.984094 234.798102 
L 465.984094 234.798102 
" clip-path="url(#p0b3719baa9)" style="fill: none; stroke: #0173b2; stroke-width: 1.5; stroke-linecap: round"/>
   </g>
   <g id="line2d_2">
    <path d="M 64.224094 148.236512 
L 65.32783 145.332867 
L 66.431566 145.917008 
L 67.535303 147.318248 
L 68.639039 149.009769 
L 69.742775 142.831153 
L 70.846511 143.972851 
L 71.950248 145.302134 
L 73.053984 145.143656 
L 74.15772 141.706015 
L 75.261456 143.01763 
L 76.365193 145.621988 
L 77.468929 142.440904 
L 78.572665 140.70727 
L 79.676401 141.950749 
L 80.780138 144.364626 
L 81.883874 144.463509 
L 82.98761 145.514206 
L 84.091346 144.295258 
L 85.195083 143.302966 
L 86.298819 141.955822 
L 87.402555 149.050542 
L 88.506292 161.10316 
L 89.610028 164.583924 
L 90.713764 166.057159 
L 91.8175 175.983679 
L 92.921237 167.096476 
L 94.024973 169.933748 
L 95.128709 168.705391 
L 96.232445 169.173948 
L 97.336182 171.880391 
L 98.439918 166.783191 
L 99.543654 159.909655 
L 100.64739 156.750673 
L 101.751127 152.368839 
L 102.854863 153.659858 
L 103.958599 150.182296 
L 105.062336 146.245142 
L 106.166072 144.495015 
L 107.269808 141.291577 
L 108.373544 144.030116 
L 109.477281 144.583652 
L 110.581017 146.362131 
L 111.684753 144.749476 
L 112.788489 152.471936 
L 113.892226 149.653226 
L 114.995962 151.614561 
L 116.099698 151.846035 
L 117.203434 154.5116 
L 119.410907 142.042512 
L 120.514643 142.99381 
L 121.618379 142.362574 
L 123.825852 149.310917 
L 124.929588 143.368044 
L 126.033325 146.60527 
L 127.137061 146.202465 
L 128.240797 132.833508 
L 129.344533 132.943346 
L 131.552006 130.559397 
L 132.655742 143.014958 
L 133.759478 153.285069 
L 134.863215 148.609382 
L 135.966951 150.431872 
L 137.070687 145.035988 
L 138.174423 143.148912 
L 139.27816 146.059968 
L 140.381896 152.503854 
L 141.485632 149.752551 
L 142.589368 146.013632 
L 143.693105 147.326387 
L 144.796841 145.752062 
L 145.900577 144.90273 
L 147.004314 138.045392 
L 148.10805 141.750981 
L 149.211786 144.762262 
L 150.315522 146.165981 
L 151.419259 147.926294 
L 152.522995 142.996382 
L 153.626731 142.680646 
L 154.730467 140.781813 
L 155.834204 144.436421 
L 156.93794 138.261633 
L 158.041676 134.336974 
L 159.145412 131.577448 
L 160.249149 133.284107 
L 161.352885 130.965437 
L 162.456621 140.098106 
L 163.560357 145.840669 
L 164.664094 137.882302 
L 165.76783 143.292177 
L 166.871566 144.099362 
L 167.975303 144.064242 
L 169.079039 143.34893 
L 170.182775 143.17416 
L 171.286511 140.049509 
L 172.390248 139.879677 
L 173.493984 132.976854 
L 174.59772 128.706392 
L 175.701456 130.211595 
L 176.805193 128.515548 
L 177.908929 125.013569 
L 179.012665 126.488651 
L 180.116401 131.706865 
L 181.220138 128.56593 
L 182.323874 128.343871 
L 183.42761 130.394131 
L 184.531346 131.942793 
L 185.635083 134.26231 
L 186.738819 137.742359 
L 187.842555 141.838493 
L 188.946292 136.938214 
L 190.050028 139.751424 
L 191.153764 138.77918 
L 192.2575 133.840345 
L 193.361237 137.049262 
L 194.464973 138.505435 
L 195.568709 139.365262 
L 196.672445 137.593593 
L 197.776182 136.689521 
L 198.879918 139.834656 
L 199.983654 138.661885 
L 201.08739 141.203279 
L 202.191127 142.478614 
L 203.294863 144.170992 
L 204.398599 145.438774 
L 205.502336 140.931557 
L 206.606072 144.024368 
L 207.709808 145.152363 
L 208.813544 145.961563 
L 209.917281 153.310373 
L 212.124753 159.330146 
L 213.228489 153.841646 
L 214.332226 154.467851 
L 215.435962 159.228151 
L 216.539698 152.468091 
L 217.643434 151.083257 
L 218.747171 145.224206 
L 219.850907 145.793723 
L 220.954643 146.163947 
L 222.058379 148.521195 
L 223.162116 149.688459 
L 224.265852 145.651709 
L 225.369588 149.833588 
L 226.473325 152.031191 
L 227.577061 156.405233 
L 228.680797 157.668278 
L 229.784533 152.057454 
L 230.88827 150.245211 
L 231.992006 155.038371 
L 233.095742 142.897318 
L 234.199478 144.213184 
L 235.303215 137.892889 
L 236.406951 130.436817 
L 237.510687 129.354704 
L 238.614423 125.550127 
L 239.71816 120.112499 
L 240.821896 122.173192 
L 241.925632 123.437531 
L 243.029368 127.624418 
L 244.133105 127.704034 
L 245.236841 128.816273 
L 246.340577 133.137711 
L 247.444314 131.82121 
L 248.54805 130.136865 
L 249.651786 120.470351 
L 250.755522 120.68638 
L 251.859259 121.840118 
L 252.962995 118.494841 
L 254.066731 116.686402 
L 255.170467 113.415901 
L 256.274204 115.814642 
L 257.37794 113.893731 
L 258.481676 107.799161 
L 259.585412 108.537673 
L 260.689149 111.524266 
L 261.792885 112.018961 
L 262.896621 106.279662 
L 264.000357 104.518213 
L 265.104094 103.415535 
L 266.20783 98.582117 
L 267.311566 96.029646 
L 268.415303 95.18619 
L 269.519039 96.67812 
L 270.622775 106.222519 
L 271.726511 99.705132 
L 272.830248 95.67882 
L 273.933984 98.190161 
L 275.03772 95.885197 
L 276.141456 95.07532 
L 277.245193 94.84491 
L 278.348929 104.104605 
L 279.452665 99.018542 
L 280.556401 100.459139 
L 281.660138 101.306964 
L 282.763874 100.015279 
L 283.86761 101.476806 
L 284.971346 99.823679 
L 286.075083 93.938259 
L 287.178819 96.889851 
L 288.282555 94.892188 
L 289.386292 91.339398 
L 291.593764 95.909914 
L 292.6975 99.018646 
L 293.801237 95.933688 
L 294.904973 98.048132 
L 296.008709 97.086135 
L 297.112445 104.446864 
L 298.216182 103.870134 
L 299.319918 109.33881 
L 300.423654 110.703683 
L 301.52739 107.69137 
L 302.631127 112.638696 
L 303.734863 113.792182 
L 304.838599 123.751087 
L 305.942336 122.437121 
L 307.046072 124.073416 
L 308.149808 121.301358 
L 309.253544 118.979209 
L 310.357281 118.21142 
L 311.461017 123.575271 
L 312.564753 125.141381 
L 313.668489 127.457022 
L 314.772226 124.5168 
L 315.875962 118.130396 
L 316.979698 116.834877 
L 319.187171 123.829843 
L 320.290907 122.578186 
L 321.394643 121.698759 
L 322.498379 115.384662 
L 323.602116 116.205875 
L 324.705852 113.084734 
L 325.809588 103.805422 
L 326.913325 98.42654 
L 328.017061 101.31426 
L 329.120797 97.172719 
L 330.224533 97.368549 
L 331.32827 92.530395 
L 332.432006 90.318715 
L 333.535742 92.581313 
L 334.639478 97.89992 
L 335.743215 95.417062 
L 336.846951 94.867431 
L 337.950687 96.260269 
L 339.054423 99.298226 
L 340.15816 98.541541 
L 341.261896 96.368769 
L 343.469368 98.844971 
L 344.573105 96.355879 
L 345.676841 97.111889 
L 346.780577 102.366701 
L 347.884314 104.190658 
L 350.091786 106.555383 
L 352.299259 105.931069 
L 353.402995 108.170566 
L 354.506731 105.104847 
L 355.610467 103.30393 
L 356.714204 103.976768 
L 357.81794 95.885871 
L 358.921676 92.937906 
L 360.025412 93.586955 
L 361.129149 92.980475 
L 362.232885 88.385381 
L 363.336621 89.20302 
L 364.440357 92.594889 
L 365.544094 85.946622 
L 366.64783 85.690147 
L 368.855303 97.640804 
L 369.959039 98.305302 
L 371.062775 106.627032 
L 372.166511 114.058823 
L 373.270248 108.071175 
L 374.373984 106.055309 
L 375.47772 105.18842 
L 376.581456 104.605009 
L 377.685193 92.799125 
L 378.788929 95.779736 
L 379.892665 101.182754 
L 380.996401 103.468732 
L 382.100138 100.887733 
L 383.203874 93.895024 
L 384.30761 97.655823 
L 385.411346 98.788087 
L 386.515083 102.626994 
L 387.618819 98.186915 
L 388.722555 99.482427 
L 389.826292 102.032181 
L 390.930028 99.956334 
L 392.033764 107.956289 
L 393.1375 112.406709 
L 394.241237 110.804229 
L 395.344973 110.491403 
L 396.448709 118.557174 
L 397.552445 125.67814 
L 398.656182 130.039961 
L 399.759918 128.769157 
L 400.863654 130.931741 
L 401.96739 134.060558 
L 403.071127 138.4537 
L 404.174863 137.473511 
L 405.278599 132.559531 
L 406.382336 129.752677 
L 407.486072 130.221083 
L 408.589808 128.678557 
L 409.693544 124.547631 
L 410.797281 125.616768 
L 411.901017 127.52081 
L 413.004753 123.187281 
L 414.108489 117.26848 
L 415.212226 112.068389 
L 416.315962 109.777312 
L 417.419698 100.77674 
L 418.523434 94.040786 
L 419.627171 90.45518 
L 420.730907 94.532247 
L 421.834643 96.432575 
L 422.938379 96.331294 
L 424.042116 98.996917 
L 425.145852 98.437775 
L 426.249588 107.441558 
L 427.353325 106.720614 
L 428.457061 105.004612 
L 429.560797 102.143668 
L 430.664533 103.186165 
L 431.76827 102.441436 
L 432.872006 104.803846 
L 433.975742 106.119731 
L 435.079478 103.716445 
L 436.183215 104.315182 
L 437.286951 105.887733 
L 438.390687 100.429944 
L 439.494423 103.813163 
L 440.59816 106.324037 
L 441.701896 105.444618 
L 442.805632 111.635718 
L 443.909368 110.054891 
L 445.013105 111.046209 
L 446.116841 111.424005 
L 447.220577 111.041719 
L 448.324314 106.625924 
L 449.42805 105.606061 
L 450.531786 115.806423 
L 451.635522 115.33165 
L 453.842995 110.279933 
L 454.946731 111.913504 
L 456.050467 102.521138 
L 457.154204 108.19312 
L 458.25794 112.196034 
L 459.361676 111.810522 
L 460.465412 108.476614 
L 461.569149 103.455613 
L 462.672885 110.17066 
L 463.776621 111.877547 
L 464.880357 111.186512 
L 465.984094 105.59687 
L 465.984094 105.59687 
" clip-path="url(#p0b3719baa9)" style="fill: none; stroke: #de8f05; stroke-width: 1.5; stroke-linecap: round"/>
   </g>
   <g id="line2d_3">
    <path d="M 64.224094 147.041753 
L 65.32783 150.1322 
L 66.431566 143.744636 
L 67.535303 143.762047 
L 68.639039 142.774053 
L 69.742775 148.329191 
L 70.846511 152.018415 
L 71.950248 147.276856 
L 73.053984 143.889952 
L 74.15772 142.456197 
L 75.261456 150.475911 
L 76.365193 153.803325 
L 77.468929 148.687683 
L 78.572665 150.235958 
L 79.676401 154.160586 
L 80.780138 156.697976 
L 81.883874 155.245654 
L 82.98761 159.683396 
L 84.091346 153.858654 
L 85.195083 149.167698 
L 86.298819 161.107596 
L 87.402555 161.473849 
L 88.506292 165.351689 
L 89.610028 162.085001 
L 90.713764 158.266799 
L 92.921237 151.705733 
L 94.024973 153.459885 
L 95.128709 151.572306 
L 96.232445 153.688442 
L 97.336182 155.190661 
L 99.543654 157.496309 
L 100.64739 162.597599 
L 102.854863 154.317815 
L 103.958599 151.561956 
L 105.062336 144.872158 
L 106.166072 140.734843 
L 107.269808 139.8687 
L 108.373544 144.298091 
L 109.477281 143.530717 
L 110.581017 148.258386 
L 111.684753 143.363771 
L 112.788489 139.944819 
L 113.892226 135.440705 
L 114.995962 131.77957 
L 116.099698 140.147004 
L 117.203434 141.398311 
L 118.307171 145.54181 
L 119.410907 140.98209 
L 120.514643 140.442441 
L 121.618379 142.247505 
L 122.722116 140.56765 
L 123.825852 143.08596 
L 124.929588 141.096917 
L 126.033325 140.271772 
L 127.137061 146.361368 
L 128.240797 154.68756 
L 129.344533 158.378309 
L 131.552006 160.09738 
L 132.655742 164.70399 
L 133.759478 164.678329 
L 134.863215 165.142338 
L 135.966951 170.492293 
L 137.070687 170.23054 
L 138.174423 169.817501 
L 139.27816 176.934255 
L 140.381896 175.509934 
L 141.485632 177.810943 
L 142.589368 175.209737 
L 143.693105 172.170232 
L 144.796841 171.047589 
L 145.900577 176.792308 
L 147.004314 173.376334 
L 148.10805 179.697104 
L 150.315522 182.728577 
L 151.419259 187.438478 
L 152.522995 191.338679 
L 153.626731 192.13606 
L 154.730467 190.310925 
L 155.834204 183.567057 
L 156.93794 188.51628 
L 158.041676 191.057197 
L 159.145412 193.938275 
L 160.249149 198.88463 
L 161.352885 197.980125 
L 164.664094 182.935369 
L 165.76783 183.761007 
L 166.871566 184.96037 
L 167.975303 184.717589 
L 169.079039 187.13592 
L 170.182775 192.035187 
L 171.286511 187.917193 
L 172.390248 186.646103 
L 173.493984 186.12675 
L 174.59772 191.212154 
L 175.701456 184.881587 
L 176.805193 176.912789 
L 177.908929 173.072569 
L 179.012665 163.147839 
L 180.116401 164.012076 
L 181.220138 173.759564 
L 182.323874 177.331549 
L 183.42761 181.38132 
L 184.531346 184.67158 
L 185.635083 182.530454 
L 186.738819 175.112364 
L 187.842555 173.571495 
L 188.946292 170.152595 
L 190.050028 172.277004 
L 191.153764 175.577556 
L 192.2575 176.24821 
L 193.361237 173.745512 
L 194.464973 172.77851 
L 195.568709 172.699013 
L 197.776182 170.923454 
L 198.879918 163.054725 
L 199.983654 164.917046 
L 201.08739 159.428347 
L 202.191127 163.439123 
L 203.294863 163.513273 
L 204.398599 163.813798 
L 205.502336 168.440922 
L 206.606072 174.455677 
L 207.709808 170.038 
L 208.813544 159.614395 
L 211.021017 154.765369 
L 212.124753 150.313305 
L 213.228489 152.066855 
L 214.332226 153.242209 
L 215.435962 154.828386 
L 216.539698 156.197742 
L 217.643434 150.90772 
L 218.747171 159.578304 
L 220.954643 168.073865 
L 222.058379 164.856506 
L 223.162116 167.601166 
L 224.265852 167.324268 
L 225.369588 166.136249 
L 226.473325 169.234242 
L 227.577061 168.488179 
L 228.680797 167.437702 
L 229.784533 168.752215 
L 230.88827 166.755452 
L 231.992006 170.150162 
L 233.095742 165.189889 
L 234.199478 159.246893 
L 235.303215 158.851169 
L 236.406951 163.377616 
L 237.510687 161.855957 
L 238.614423 170.645435 
L 239.71816 166.370525 
L 240.821896 173.96072 
L 241.925632 175.475163 
L 243.029368 180.675128 
L 244.133105 183.986152 
L 245.236841 181.135358 
L 246.340577 184.205628 
L 247.444314 187.764401 
L 248.54805 186.760097 
L 249.651786 178.407986 
L 250.755522 172.270466 
L 251.859259 169.127868 
L 252.962995 171.095887 
L 254.066731 170.648443 
L 255.170467 169.030395 
L 256.274204 165.117792 
L 257.37794 167.692754 
L 258.481676 173.518046 
L 259.585412 174.050229 
L 260.689149 178.902324 
L 261.792885 179.686416 
L 262.896621 182.492412 
L 264.000357 183.661087 
L 265.104094 185.359826 
L 266.20783 181.864187 
L 267.311566 181.220105 
L 268.415303 182.540783 
L 269.519039 179.646757 
L 270.622775 179.266016 
L 271.726511 170.29965 
L 272.830248 170.789832 
L 273.933984 167.61592 
L 275.03772 163.009703 
L 276.141456 159.1239 
L 277.245193 158.102705 
L 278.348929 160.08694 
L 279.452665 160.367232 
L 281.660138 157.895537 
L 282.763874 155.639855 
L 283.86761 156.318808 
L 284.971346 154.199672 
L 286.075083 153.724497 
L 287.178819 154.702761 
L 288.282555 157.126477 
L 289.386292 161.971616 
L 290.490028 159.310534 
L 291.593764 167.919364 
L 292.6975 166.377348 
L 293.801237 167.170694 
L 294.904973 163.931143 
L 296.008709 165.722185 
L 297.112445 170.085972 
L 298.216182 160.551354 
L 299.319918 153.557676 
L 300.423654 137.624578 
L 301.52739 140.115673 
L 302.631127 139.455519 
L 303.734863 145.800813 
L 304.838599 143.28447 
L 305.942336 141.768653 
L 307.046072 139.165353 
L 309.253544 134.738289 
L 310.357281 132.111427 
L 311.461017 136.93143 
L 312.564753 138.813639 
L 313.668489 144.149978 
L 314.772226 148.545723 
L 316.979698 142.146212 
L 318.083434 141.101718 
L 319.187171 145.386714 
L 320.290907 146.85179 
L 321.394643 140.580552 
L 322.498379 145.406149 
L 323.602116 145.318199 
L 324.705852 148.950677 
L 325.809588 150.044048 
L 326.913325 147.385129 
L 328.017061 147.293513 
L 329.120797 154.330441 
L 330.224533 148.420565 
L 331.32827 149.110743 
L 332.432006 153.422786 
L 333.535742 152.351593 
L 334.639478 163.411139 
L 335.743215 161.792942 
L 336.846951 159.467756 
L 337.950687 160.789419 
L 339.054423 160.233727 
L 340.15816 168.775669 
L 341.261896 167.996094 
L 342.365632 172.679337 
L 343.469368 171.157486 
L 344.573105 172.552909 
L 345.676841 171.279051 
L 346.780577 169.339861 
L 347.884314 168.124062 
L 348.98805 168.104269 
L 350.091786 165.96397 
L 351.195522 160.225212 
L 352.299259 158.471104 
L 353.402995 156.310864 
L 354.506731 156.486318 
L 355.610467 161.712697 
L 357.81794 153.164134 
L 358.921676 153.539151 
L 360.025412 151.298442 
L 361.129149 150.633813 
L 362.232885 156.340379 
L 363.336621 152.018507 
L 364.440357 154.8406 
L 365.544094 158.785522 
L 366.64783 163.638383 
L 367.751566 165.872122 
L 368.855303 159.553691 
L 369.959039 158.815618 
L 371.062775 151.533004 
L 372.166511 149.944616 
L 373.270248 151.613326 
L 374.373984 149.319945 
L 375.47772 154.482623 
L 376.581456 155.878334 
L 377.685193 152.092989 
L 378.788929 155.952891 
L 379.892665 156.860466 
L 380.996401 150.390881 
L 382.100138 151.418747 
L 383.203874 145.319425 
L 384.30761 149.773382 
L 385.411346 150.045917 
L 386.515083 154.388965 
L 387.618819 161.506596 
L 388.722555 162.421761 
L 389.826292 168.715549 
L 390.930028 173.173375 
L 392.033764 174.191193 
L 393.1375 174.995544 
L 394.241237 173.60928 
L 395.344973 176.828461 
L 396.448709 175.641839 
L 397.552445 176.733777 
L 398.656182 173.880444 
L 399.759918 178.02901 
L 400.863654 175.727132 
L 401.96739 183.458796 
L 403.071127 185.205673 
L 404.174863 182.992153 
L 405.278599 186.395008 
L 406.382336 190.836174 
L 407.486072 189.484107 
L 408.589808 195.302606 
L 409.693544 198.525197 
L 410.797281 194.972718 
L 411.901017 199.9599 
L 413.004753 197.854923 
L 414.108489 199.445321 
L 415.212226 195.712894 
L 417.419698 192.190831 
L 418.523434 190.527323 
L 419.627171 189.199549 
L 420.730907 188.254222 
L 421.834643 194.698635 
L 422.938379 197.737806 
L 424.042116 192.970369 
L 425.145852 189.399456 
L 426.249588 189.448238 
L 427.353325 192.849067 
L 428.457061 199.416461 
L 429.560797 196.995125 
L 430.664533 194.260398 
L 431.76827 189.588309 
L 432.872006 193.178892 
L 433.975742 202.451402 
L 435.079478 202.412367 
L 436.183215 208.105078 
L 437.286951 201.422626 
L 438.390687 202.909675 
L 439.494423 197.188654 
L 440.59816 194.414412 
L 441.701896 195.898787 
L 442.805632 197.579755 
L 443.909368 198.056083 
L 445.013105 192.397479 
L 446.116841 194.508006 
L 447.220577 190.37407 
L 448.324314 182.385892 
L 449.42805 186.754496 
L 450.531786 183.220546 
L 451.635522 187.821589 
L 452.739259 193.904806 
L 453.842995 195.770346 
L 454.946731 198.349226 
L 456.050467 202.123763 
L 457.154204 195.356649 
L 458.25794 197.205729 
L 459.361676 200.813281 
L 460.465412 202.836819 
L 461.569149 200.470431 
L 462.672885 195.841326 
L 463.776621 192.60186 
L 464.880357 182.797488 
L 465.984094 182.651739 
L 465.984094 182.651739 
" clip-path="url(#p0b3719baa9)" style="fill: none; stroke: #029e73; stroke-width: 1.5; stroke-linecap: round"/>
   </g>
   <g id="line2d_4">
    <path d="M 64.224094 143.437721 
L 65.32783 139.211847 
L 66.431566 140.770108 
L 67.535303 140.126285 
L 68.639039 138.71063 
L 69.742775 138.12201 
L 71.950248 143.555799 
L 73.053984 140.730506 
L 74.15772 144.917647 
L 75.261456 138.699785 
L 76.365193 138.474837 
L 77.468929 136.983593 
L 78.572665 144.203604 
L 79.676401 137.336272 
L 80.780138 136.01366 
L 81.883874 134.189337 
L 82.98761 139.09834 
L 84.091346 132.012739 
L 85.195083 136.492694 
L 86.298819 138.680641 
L 87.402555 139.047804 
L 88.506292 138.504185 
L 89.610028 139.083238 
L 90.713764 143.172311 
L 91.8175 148.56255 
L 92.921237 151.629878 
L 94.024973 149.583112 
L 95.128709 145.291562 
L 96.232445 146.828929 
L 97.336182 149.914932 
L 98.439918 149.453643 
L 99.543654 155.720721 
L 100.64739 154.279154 
L 101.751127 151.453602 
L 102.854863 151.148182 
L 103.958599 154.756831 
L 105.062336 157.925504 
L 106.166072 155.026035 
L 107.269808 158.061558 
L 108.373544 160.058236 
L 109.477281 156.593364 
L 110.581017 159.552291 
L 111.684753 156.582754 
L 112.788489 158.653334 
L 113.892226 164.726256 
L 114.995962 167.387589 
L 116.099698 165.65455 
L 117.203434 162.384779 
L 118.307171 162.171448 
L 119.410907 161.129616 
L 120.514643 167.488267 
L 121.618379 162.962172 
L 122.722116 163.443768 
L 123.825852 160.836224 
L 124.929588 157.661458 
L 126.033325 160.393772 
L 127.137061 163.786309 
L 128.240797 162.990628 
L 129.344533 151.761032 
L 130.44827 153.605378 
L 131.552006 151.961916 
L 132.655742 147.109933 
L 133.759478 141.602795 
L 134.863215 143.425425 
L 135.966951 138.614685 
L 137.070687 139.472868 
L 138.174423 148.093082 
L 139.27816 148.6285 
L 140.381896 146.36206 
L 141.485632 142.379431 
L 142.589368 146.130042 
L 143.693105 146.906879 
L 144.796841 150.372045 
L 145.900577 156.166525 
L 147.004314 152.714723 
L 148.10805 155.856791 
L 149.211786 150.073382 
L 150.315522 143.06022 
L 151.419259 139.438018 
L 152.522995 140.536223 
L 153.626731 138.537455 
L 154.730467 138.991925 
L 155.834204 139.617918 
L 156.93794 134.645343 
L 158.041676 130.923502 
L 159.145412 130.760232 
L 160.249149 138.631104 
L 161.352885 140.273916 
L 162.456621 138.223161 
L 163.560357 141.184939 
L 164.664094 141.341596 
L 165.76783 141.858115 
L 166.871566 139.56613 
L 169.079039 125.464758 
L 170.182775 124.323257 
L 171.286511 122.538002 
L 173.493984 125.941449 
L 174.59772 130.72546 
L 175.701456 132.044047 
L 176.805193 132.504337 
L 177.908929 123.548287 
L 179.012665 123.304196 
L 180.116401 120.383301 
L 181.220138 119.625044 
L 182.323874 116.183049 
L 183.42761 120.584424 
L 184.531346 123.077185 
L 185.635083 124.074106 
L 186.738819 120.788573 
L 187.842555 117.115717 
L 188.946292 120.673085 
L 190.050028 121.558955 
L 191.153764 116.377802 
L 192.2575 120.199635 
L 193.361237 117.608218 
L 194.464973 112.955698 
L 195.568709 113.526636 
L 196.672445 106.881444 
L 197.776182 108.038074 
L 198.879918 102.187437 
L 199.983654 95.179687 
L 201.08739 92.470088 
L 202.191127 94.145906 
L 203.294863 90.118683 
L 204.398599 83.677319 
L 205.502336 84.718035 
L 206.606072 78.611659 
L 207.709808 87.468727 
L 208.813544 89.658439 
L 209.917281 96.436086 
L 211.021017 95.471351 
L 212.124753 95.947614 
L 213.228489 99.573064 
L 214.332226 101.655712 
L 215.435962 103.255945 
L 216.539698 98.722341 
L 217.643434 96.478875 
L 218.747171 94.613228 
L 219.850907 95.327227 
L 220.954643 90.34268 
L 222.058379 93.587202 
L 223.162116 94.241843 
L 224.265852 84.843231 
L 225.369588 86.545363 
L 226.473325 80.991735 
L 227.577061 83.062397 
L 228.680797 81.503064 
L 229.784533 89.773771 
L 230.88827 90.675381 
L 231.992006 92.700572 
L 233.095742 86.591582 
L 234.199478 84.181916 
L 235.303215 85.550894 
L 236.406951 88.502086 
L 237.510687 87.050232 
L 238.614423 89.622928 
L 239.71816 88.161111 
L 240.821896 91.621982 
L 241.925632 85.327486 
L 243.029368 88.715441 
L 244.133105 89.565087 
L 245.236841 93.658686 
L 246.340577 91.069896 
L 247.444314 89.450844 
L 248.54805 94.293581 
L 249.651786 91.817023 
L 250.755522 91.663986 
L 251.859259 86.88715 
L 252.962995 86.993262 
L 254.066731 83.976781 
L 255.170467 88.340563 
L 256.274204 87.58929 
L 257.37794 86.657287 
L 258.481676 95.406889 
L 259.585412 95.760905 
L 260.689149 96.642414 
L 261.792885 98.716501 
L 262.896621 97.521741 
L 264.000357 95.02151 
L 265.104094 93.751214 
L 266.20783 94.34513 
L 267.311566 91.415118 
L 268.415303 91.879791 
L 269.519039 89.603272 
L 270.622775 88.711029 
L 271.726511 91.181763 
L 272.830248 90.933269 
L 273.933984 91.345532 
L 275.03772 91.39635 
L 276.141456 89.970239 
L 277.245193 93.078431 
L 278.348929 90.930661 
L 279.452665 89.855776 
L 280.556401 94.847365 
L 281.660138 97.899708 
L 283.86761 94.012211 
L 284.971346 94.915064 
L 286.075083 98.739396 
L 287.178819 95.561392 
L 288.282555 95.142069 
L 289.386292 93.487699 
L 290.490028 92.137404 
L 291.593764 95.502658 
L 292.6975 93.576836 
L 293.801237 92.860167 
L 294.904973 95.053781 
L 296.008709 94.307997 
L 297.112445 99.136328 
L 298.216182 98.513806 
L 299.319918 96.658687 
L 300.423654 101.490296 
L 301.52739 107.230173 
L 302.631127 109.315425 
L 303.734863 115.255695 
L 304.838599 114.929743 
L 305.942336 115.488136 
L 307.046072 112.333723 
L 308.149808 109.994195 
L 309.253544 105.376849 
L 310.357281 109.392372 
L 311.461017 109.191894 
L 312.564753 110.980271 
L 313.668489 110.604219 
L 314.772226 108.615265 
L 315.875962 110.924633 
L 316.979698 112.748079 
L 318.083434 112.20783 
L 319.187171 110.799616 
L 320.290907 108.990607 
L 321.394643 115.864339 
L 322.498379 117.335706 
L 323.602116 114.98561 
L 324.705852 109.499919 
L 325.809588 105.138223 
L 326.913325 105.692815 
L 328.017061 107.240959 
L 329.120797 110.252828 
L 330.224533 110.332406 
L 332.432006 119.288604 
L 333.535742 120.153696 
L 334.639478 117.680447 
L 335.743215 121.127517 
L 337.950687 126.1737 
L 339.054423 128.726001 
L 340.15816 129.606286 
L 341.261896 120.471743 
L 342.365632 127.8678 
L 343.469368 124.0218 
L 344.573105 123.305459 
L 345.676841 121.282255 
L 346.780577 126.814804 
L 347.884314 125.463085 
L 348.98805 121.610762 
L 350.091786 118.594389 
L 351.195522 120.9464 
L 352.299259 116.756308 
L 353.402995 123.020639 
L 354.506731 126.971465 
L 355.610467 132.375366 
L 356.714204 130.542629 
L 357.81794 132.088518 
L 358.921676 132.725496 
L 360.025412 136.891242 
L 361.129149 135.912438 
L 362.232885 133.512389 
L 363.336621 125.798423 
L 364.440357 129.894847 
L 365.544094 136.029833 
L 366.64783 135.554667 
L 367.751566 141.919703 
L 368.855303 136.481743 
L 369.959039 129.894914 
L 371.062775 129.269811 
L 372.166511 129.171344 
L 373.270248 124.231782 
L 374.373984 125.64098 
L 375.47772 134.451542 
L 376.581456 126.513747 
L 377.685193 127.560863 
L 378.788929 127.664435 
L 379.892665 125.150122 
L 382.100138 122.956892 
L 383.203874 127.606553 
L 384.30761 131.586054 
L 385.411346 133.243728 
L 386.515083 132.743223 
L 387.618819 134.82985 
L 388.722555 128.225275 
L 389.826292 126.27787 
L 390.930028 121.021761 
L 392.033764 118.44674 
L 393.1375 114.29878 
L 394.241237 115.065717 
L 395.344973 114.854783 
L 396.448709 115.505077 
L 397.552445 112.472136 
L 398.656182 102.56149 
L 399.759918 103.909078 
L 400.863654 103.305851 
L 401.96739 97.196729 
L 403.071127 95.391436 
L 404.174863 96.02383 
L 405.278599 93.688849 
L 406.382336 93.607617 
L 407.486072 82.064497 
L 408.589808 81.73606 
L 409.693544 82.524815 
L 410.797281 83.995016 
L 411.901017 81.943859 
L 413.004753 75.125231 
L 414.108489 86.271382 
L 415.212226 74.896602 
L 416.315962 76.533572 
L 417.419698 82.51182 
L 418.523434 83.67 
L 419.627171 89.580477 
L 421.834643 92.955685 
L 422.938379 92.977277 
L 424.042116 98.34406 
L 425.145852 97.144316 
L 426.249588 94.865136 
L 427.353325 97.203286 
L 428.457061 102.555715 
L 429.560797 102.978982 
L 430.664533 99.706321 
L 431.76827 102.135438 
L 432.872006 104.090166 
L 433.975742 101.533788 
L 435.079478 109.564885 
L 437.286951 118.919883 
L 438.390687 123.993364 
L 439.494423 127.739482 
L 440.59816 124.533937 
L 441.701896 121.995628 
L 442.805632 124.576257 
L 443.909368 115.587259 
L 445.013105 116.39553 
L 446.116841 112.356094 
L 447.220577 111.532307 
L 448.324314 113.308556 
L 449.42805 107.848851 
L 450.531786 108.059999 
L 451.635522 107.421228 
L 452.739259 101.131755 
L 453.842995 97.434199 
L 454.946731 95.537942 
L 456.050467 95.018168 
L 457.154204 90.66411 
L 458.25794 89.807048 
L 459.361676 83.965553 
L 460.465412 87.713495 
L 461.569149 86.419203 
L 462.672885 81.366888 
L 463.776621 77.363905 
L 464.880357 71.503449 
L 465.984094 71.662536 
L 465.984094 71.662536 
" clip-path="url(#p0b3719baa9)" style="fill: none; stroke: #d55e00; stroke-width: 1.5; stroke-linecap: round"/>
   </g>
   <g id="line2d_5"/>
   <g id="line2d_6"/>
   <g id="line2d_7"/>
   <g id="line2d_8"/>
   <g id="patch_3">
    <path d="M 44.136094 272.332875 
L 44.136094 28.396875 
" style="fill: none; stroke: #262626; stroke-width: 1.25; stroke-linejoin: miter; stroke-linecap: square"/>
   </g>
   <g id="patch_4">
    <path d="M 44.136094 272.332875 
L 486.072094 272.332875 
" style="fill: none; stroke: #262626; stroke-width: 1.25; stroke-linejoin: miter; stroke-linecap: square"/>
   </g>
   <g id="text_15">
    <!-- Example Time Series -->
    <g style="fill: #262626" transform="translate(160.141594 22.396875)scale(0.2 -0.2)">
     <defs>
      <path id="DejaVuSans-45" d="M 628 4666 
L 3578 4666 
L 3578 4134 
L 1259 4134 
L 1259 2753 
L 3481 2753 
L 3481 2222 
L 1259 2222 
L 1259 531 
L 3634 531 
L 3634 0 
L 628 0 
L 628 4666 
z
" transform="scale(0.015625)"/>
      <path id="DejaVuSans-78" d="M 3513 3500 
L 2247 1797 
L 3578 0 
L 2900 0 
L 1881 1375 
L 863 0 
L 184 0 
L 1544 1831 
L 300 3500 
L 978 3500 
L 1906 2253 
L 2834 3500 
L 3513 3500 
z
" transform="scale(0.015625)"/>
      <path id="DejaVuSans-6d" d="M 3328 2828 
Q 3544 3216 3844 3400 
Q 4144 3584 4550 3584 
Q 5097 3584 5394 3201 
Q 5691 2819 5691 2113 
L 5691 0 
L 5113 0 
L 5113 2094 
Q 5113 2597 4934 2840 
Q 4756 3084 4391 3084 
Q 3944 3084 3684 2787 
Q 3425 2491 3425 1978 
L 3425 0 
L 2847 0 
L 2847 2094 
Q 2847 2600 2669 2842 
Q 2491 3084 2119 3084 
Q 1678 3084 1418 2786 
Q 1159 2488 1159 1978 
L 1159 0 
L 581 0 
L 581 3500 
L 1159 3500 
L 1159 2956 
Q 1356 3278 1631 3431 
Q 1906 3584 2284 3584 
Q 2666 3584 2933 3390 
Q 3200 3197 3328 2828 
z
" transform="scale(0.015625)"/>
      <path id="DejaVuSans-54" d="M -19 4666 
L 3928 4666 
L 3928 4134 
L 2272 4134 
L 2272 0 
L 1638 0 
L 1638 4134 
L -19 4134 
L -19 4666 
z
" transform="scale(0.015625)"/>
      <path id="DejaVuSans-69" d="M 603 3500 
L 1178 3500 
L 1178 0 
L 603 0 
L 603 3500 
z
M 603 4863 
L 1178 4863 
L 1178 4134 
L 603 4134 
L 603 4863 
z
" transform="scale(0.015625)"/>
      <path id="DejaVuSans-73" d="M 2834 3397 
L 2834 2853 
Q 2591 2978 2328 3040 
Q 2066 3103 1784 3103 
Q 1356 3103 1142 2972 
Q 928 2841 928 2578 
Q 928 2378 1081 2264 
Q 1234 2150 1697 2047 
L 1894 2003 
Q 2506 1872 2764 1633 
Q 3022 1394 3022 966 
Q 3022 478 2636 193 
Q 2250 -91 1575 -91 
Q 1294 -91 989 -36 
Q 684 19 347 128 
L 347 722 
Q 666 556 975 473 
Q 1284 391 1588 391 
Q 1994 391 2212 530 
Q 2431 669 2431 922 
Q 2431 1156 2273 1281 
Q 2116 1406 1581 1522 
L 1381 1569 
Q 847 1681 609 1914 
Q 372 2147 372 2553 
Q 372 3047 722 3315 
Q 1072 3584 1716 3584 
Q 2034 3584 2315 3537 
Q 2597 3491 2834 3397 
z
" transform="scale(0.015625)"/>
     </defs>
     <use xlink:href="#DejaVuSans-45"/>
     <use xlink:href="#DejaVuSans-78" x="63.183594"/>
     <use xlink:href="#DejaVuSans-61" x="122.363281"/>
     <use xlink:href="#DejaVuSans-6d" x="183.642578"/>
     <use xlink:href="#DejaVuSans-70" x="281.054688"/>
     <use xlink:href="#DejaVuSans-6c" x="344.53125"/>
     <use xlink:href="#DejaVuSans-65" x="372.314453"/>
     <use xlink:href="#DejaVuSans-20" x="433.837891"/>
     <use xlink:href="#DejaVuSans-54" x="465.625"/>
     <use xlink:href="#DejaVuSans-69" x="523.583984"/>
     <use xlink:href="#DejaVuSans-6d" x="551.367188"/>
     <use xlink:href="#DejaVuSans-65" x="648.779297"/>
     <use xlink:href="#DejaVuSans-20" x="710.302734"/>
     <use xlink:href="#DejaVuSans-53" x="742.089844"/>
     <use xlink:href="#DejaVuSans-65" x="805.566406"/>
     <use xlink:href="#DejaVuSans-72" x="867.089844"/>
     <use xlink:href="#DejaVuSans-69" x="908.203125"/>
     <use xlink:href="#DejaVuSans-65" x="935.986328"/>
     <use xlink:href="#DejaVuSans-73" x="997.509766"/>
    </g>
   </g>
   <g id="legend_1">
    <g id="patch_5">
     <path d="M 51.136094 95.109375 
L 90.836094 95.109375 
Q 92.836094 95.109375 92.836094 93.109375 
L 92.836094 35.396875 
Q 92.836094 33.396875 90.836094 33.396875 
L 51.136094 33.396875 
Q 49.136094 33.396875 49.136094 35.396875 
L 49.136094 93.109375 
Q 49.136094 95.109375 51.136094 95.109375 
z
" style="fill: #ffffff; opacity: 0.8; stroke: #cccccc; stroke-linejoin: miter"/>
    </g>
    <g id="line2d_9">
     <path d="M 53.136094 41.495312 
L 63.136094 41.495312 
L 73.136094 41.495312 
" style="fill: none; stroke: #0173b2; stroke-width: 1.5; stroke-linecap: round"/>
    </g>
    <g id="text_16">
     <!-- A -->
     <g style="fill: #262626" transform="translate(81.136094 44.995312)scale(0.1 -0.1)">
      <defs>
       <path id="DejaVuSans-41" d="M 2188 4044 
L 1331 1722 
L 3047 1722 
L 2188 4044 
z
M 1831 4666 
L 2547 4666 
L 4325 0 
L 3669 0 
L 3244 1197 
L 1141 1197 
L 716 0 
L 50 0 
L 1831 4666 
z
" transform="scale(0.015625)"/>
      </defs>
      <use xlink:href="#DejaVuSans-41"/>
     </g>
    </g>
    <g id="line2d_10">
     <path d="M 53.136094 56.173437 
L 63.136094 56.173437 
L 73.136094 56.173437 
" style="fill: none; stroke: #de8f05; stroke-width: 1.5; stroke-linecap: round"/>
    </g>
    <g id="text_17">
     <!-- B -->
     <g style="fill: #262626" transform="translate(81.136094 59.673437)scale(0.1 -0.1)">
      <defs>
       <path id="DejaVuSans-42" d="M 1259 2228 
L 1259 519 
L 2272 519 
Q 2781 519 3026 730 
Q 3272 941 3272 1375 
Q 3272 1813 3026 2020 
Q 2781 2228 2272 2228 
L 1259 2228 
z
M 1259 4147 
L 1259 2741 
L 2194 2741 
Q 2656 2741 2882 2914 
Q 3109 3088 3109 3444 
Q 3109 3797 2882 3972 
Q 2656 4147 2194 4147 
L 1259 4147 
z
M 628 4666 
L 2241 4666 
Q 2963 4666 3353 4366 
Q 3744 4066 3744 3513 
Q 3744 3084 3544 2831 
Q 3344 2578 2956 2516 
Q 3422 2416 3680 2098 
Q 3938 1781 3938 1306 
Q 3938 681 3513 340 
Q 3088 0 2303 0 
L 628 0 
L 628 4666 
z
" transform="scale(0.015625)"/>
      </defs>
      <use xlink:href="#DejaVuSans-42"/>
     </g>
    </g>
    <g id="line2d_11">
     <path d="M 53.136094 70.851562 
L 63.136094 70.851562 
L 73.136094 70.851562 
" style="fill: none; stroke: #029e73; stroke-width: 1.5; stroke-linecap: round"/>
    </g>
    <g id="text_18">
     <!-- C -->
     <g style="fill: #262626" transform="translate(81.136094 74.351562)scale(0.1 -0.1)">
      <defs>
       <path id="DejaVuSans-43" d="M 4122 4306 
L 4122 3641 
Q 3803 3938 3442 4084 
Q 3081 4231 2675 4231 
Q 1875 4231 1450 3742 
Q 1025 3253 1025 2328 
Q 1025 1406 1450 917 
Q 1875 428 2675 428 
Q 3081 428 3442 575 
Q 3803 722 4122 1019 
L 4122 359 
Q 3791 134 3420 21 
Q 3050 -91 2638 -91 
Q 1578 -91 968 557 
Q 359 1206 359 2328 
Q 359 3453 968 4101 
Q 1578 4750 2638 4750 
Q 3056 4750 3426 4639 
Q 3797 4528 4122 4306 
z
" transform="scale(0.015625)"/>
      </defs>
      <use xlink:href="#DejaVuSans-43"/>
     </g>
    </g>
    <g id="line2d_12">
     <path d="M 53.136094 85.529687 
L 63.136094 85.529687 
L 73.136094 85.529687 
" style="fill: none; stroke: #d55e00; stroke-width: 1.5; stroke-linecap: round"/>
    </g>
    <g id="text_19">
     <!-- D -->
     <g style="fill: #262626" transform="translate(81.136094 89.029687)scale(0.1 -0.1)">
      <defs>
       <path id="DejaVuSans-44" d="M 1259 4147 
L 1259 519 
L 2022 519 
Q 2988 519 3436 956 
Q 3884 1394 3884 2338 
Q 3884 3275 3436 3711 
Q 2988 4147 2022 4147 
L 1259 4147 
z
M 628 4666 
L 1925 4666 
Q 3281 4666 3915 4102 
Q 4550 3538 4550 2338 
Q 4550 1131 3912 565 
Q 3275 0 1925 0 
L 628 0 
L 628 4666 
z
" transform="scale(0.015625)"/>
      </defs>
      <use xlink:href="#DejaVuSans-44"/>
     </g>
    </g>
   </g>
  </g>
 </g>
 <defs>
  <clipPath id="p0b3719baa9">
   <rect x="44.136094" y="28.396875" width="441.936" height="243.936"/>
  </clipPath>
 </defs>
</svg>
